<svg width="86" height="110" viewBox="0 0 86 110" fill="none" xmlns="http://www.w3.org/2000/svg">
<path d="M72.5109 26.6239C62.6649 26.1099 54.1291 22.5553 49.0911 16.8716L43.0001 10L36.9089 16.8716C31.8711 22.5554 23.3353 26.1099 13.4891 26.6239L6 27.0148V59.5327C6 80.2207 35.9171 95.5184 39.3276 97.1946L43.0001 99L46.6726 97.1946C50.0829 95.5186 80 80.2207 80 59.5327V27.0148L72.5109 26.6239ZM43.0001 21.6428C49.6057 29.0969 60.1782 33.4454 72.0711 34.066C72.0711 34.066 72.0711 53.3211 72.0711 59.5327C72.0711 76.3027 43.0001 90.5892 43.0001 90.5892C43.0001 90.5892 13.9289 76.3027 13.9289 59.5327C13.9289 53.3211 13.9289 34.066 13.9289 34.066C25.8216 33.4454 36.3943 29.0971 43.0001 21.6428Z" fill="#5965D1"/>
<path d="M70.3206 29.756C61.539 29.2998 53.926 26.1446 49.4326 21.0995L44.0001 15L38.5674 21.0995C34.0742 26.1447 26.4612 29.2998 17.6794 29.756L11 30.103V58.9672C11 77.3307 37.6828 90.9096 40.7246 92.3975L44.0001 94L47.2756 92.3975C50.3172 90.9097 77 77.3307 77 58.9672V30.103L70.3206 29.756ZM44.0001 25.3346C49.8916 31.9512 59.3211 35.8111 69.9282 36.3619C69.9282 36.3619 69.9282 53.4536 69.9282 58.9672C69.9282 73.853 44.0001 86.5342 44.0001 86.5342C44.0001 86.5342 18.0718 73.853 18.0718 58.9672C18.0718 53.4536 18.0718 36.3619 18.0718 36.3619C28.6788 35.8111 38.1084 31.9514 44.0001 25.3346Z" fill="#5965D1"/>
<path d="M66.9278 32.4485C58.9445 32.0327 52.0236 29.1571 47.9387 24.559L43.0001 19L38.0613 24.559C33.9765 29.1572 27.0556 32.0327 19.0722 32.4485L13 32.7648V59.0714C13 75.8077 37.2571 88.1834 40.0224 89.5395L43.0001 91L45.9778 89.5395C48.7429 88.1836 73 75.8077 73 59.0714V32.7648L66.9278 32.4485ZM43.0001 28.4189C48.356 34.4492 56.9283 37.9671 66.5711 38.4691C66.5711 38.4691 66.5711 54.0463 66.5711 59.0714C66.5711 72.6382 43.0001 84.1957 43.0001 84.1957C43.0001 84.1957 19.4289 72.6382 19.4289 59.0714C19.4289 54.0463 19.4289 38.4691 19.4289 38.4691C29.0716 37.9671 37.644 34.4493 43.0001 28.4189Z" fill="#5965D1"/>
<rect x="19" y="28" width="48" height="53" fill="#5965D1"/>
<rect x="29" y="34" width="29" height="53" fill="#5965D1"/>
<path d="M76.7354 20.4012C65.3758 19.7704 55.5278 15.4081 49.7154 8.43298L42.688 0L35.6604 8.43298C29.8481 15.4083 20.0001 19.7704 8.64033 20.4012L0 20.881V60.7876C0 86.1763 34.5161 104.95 38.4509 107.007L42.688 109.223L46.9251 107.007C50.8596 104.95 85.3757 86.1763 85.3757 60.7876V20.881L76.7354 20.4012ZM42.688 14.2883C50.309 23.4362 62.5068 28.7727 76.2279 29.5343C76.2279 29.5343 76.2279 53.1646 76.2279 60.7876C76.2279 81.3682 42.688 98.9008 42.688 98.9008C42.688 98.9008 9.14783 81.3682 9.14783 60.7876C9.14783 53.1646 9.14783 29.5343 9.14783 29.5343C22.8687 28.7727 35.0667 23.4364 42.688 14.2883Z" fill="#2A2D86"/>
<path d="M62.4163 30C62.4163 30 60.7109 32.7634 49.5704 36.8527C38.2134 41.0215 31.2225 57.9861 31.2225 57.9861C29.5386 61.4605 22.8861 75.9015 22.8861 75.9015C21.0545 79.6292 24.4123 81.8325 26.3802 77.9828C30.1582 70.5899 32.5937 63.8349 38.3367 63.6426C46.7104 63.3618 52.4376 55.4288 50.6361 55.795C48.2637 56.9165 43.037 55.8805 46.1165 55.3662C53.509 54.7223 58.0616 48.6966 56.5785 48.2861C53.9565 49.3817 51.5139 48.3426 51.0348 48.0268C64.0815 46.307 62.4163 30 62.4163 30Z" fill="#E5F250"/>
</svg>
