<svg width="63" height="79" viewBox="0 0 63 79" fill="none" xmlns="http://www.w3.org/2000/svg">
<path d="M56.1264 14.756C47.9101 14.2998 40.7871 11.1446 36.583 6.09951L31.5002 0L26.4172 6.09951C22.2132 11.1447 15.0902 14.2998 6.87375 14.756L0.624268 15.103V43.9672C0.624268 62.3307 25.5895 75.9096 28.4355 77.3975L31.5002 79L34.5648 77.3975C37.4106 75.9097 62.3759 62.3307 62.3759 43.9672V15.103L56.1264 14.756ZM31.5002 10.3347C37.0124 16.9512 45.8349 20.8111 55.7593 21.3619C55.7593 21.3619 55.7593 38.4536 55.7593 43.9672C55.7593 58.853 31.5002 71.5342 31.5002 71.5342C31.5002 71.5342 7.24083 58.853 7.24083 43.9672C7.24083 38.4536 7.24083 21.3619 7.24083 21.3619C17.165 20.8111 25.9877 16.9514 31.5002 10.3347Z" fill="#4B4B4B"/>
</svg>
