<svg width="99" height="101" viewBox="0 0 99 101" fill="none" xmlns="http://www.w3.org/2000/svg">
<path d="M48.2428 82.6854L22.1083 98.0391L21.8788 67.7291L48.2428 82.6854Z" fill="#846769"/>
<path d="M48.3369 83.1357L74.3893 67.6431L74.7801 97.9515L48.3369 83.1357Z" fill="#846769"/>
<ellipse cx="49.1141" cy="49.2304" rx="35" ry="34.9635" transform="rotate(-35.5346 49.1141 49.2304)" fill="#B28C8C"/>
<ellipse cx="50.1649" cy="50.7016" rx="35" ry="33.1555" transform="rotate(-35.5346 50.1649 50.7016)" fill="#967777"/>
<path d="M14.7615 45.9867L16.6092 37.6129L21.907 28.3697L29.8708 20.8594L40.4361 15.9183L54.1385 14.8336L63.9027 17.872L68.4586 20.442L71.9689 22.9563L73.4741 24.4637L74.7109 25.5554L76.9864 27.9809L78.9945 30.4921L80.3182 32.2999L23.3547 72.9836L18.3895 65.0129L15.1547 57.1149L14.7615 45.9867Z" fill="#B28C8C"/>
<path d="M48.9403 69.5868C46.1747 69.5868 43.7094 69.1119 41.5444 68.1621C39.3933 67.2122 37.6823 65.8923 36.4112 64.2022C35.1541 62.4981 34.4697 60.5217 34.358 58.2728H39.6378C39.7495 59.6557 40.2244 60.8499 41.0625 61.8556C41.9006 62.8473 42.997 63.6155 44.3519 64.1603C45.7068 64.705 47.2083 64.9774 48.8565 64.9774C50.7003 64.9774 52.3345 64.6561 53.7592 64.0136C55.1839 63.3711 56.3014 62.4772 57.1115 61.3318C57.9216 60.1864 58.3267 58.8595 58.3267 57.351C58.3267 55.7726 57.9356 54.3828 57.1534 53.1816C56.3712 51.9664 55.2259 51.0166 53.7173 50.3322C52.2088 49.6477 50.3651 49.3055 48.1861 49.3055H44.75V44.6961H48.1861C49.8902 44.6961 51.3847 44.3889 52.6697 43.7743C53.9688 43.1597 54.9814 42.2937 55.7077 41.1763C56.448 40.0588 56.8182 38.7459 56.8182 37.2373C56.8182 35.7847 56.4969 34.5206 55.8544 33.4451C55.2119 32.3696 54.304 31.5315 53.1307 30.9309C51.9714 30.3303 50.6025 30.03 49.0241 30.03C47.5436 30.03 46.1468 30.3023 44.8338 30.8471C43.5348 31.3778 42.4732 32.1531 41.6491 33.1727C40.825 34.1784 40.3781 35.3936 40.3082 36.8183H35.2798C35.3636 34.5695 36.0411 32.6 37.3121 30.9099C38.5832 29.2058 40.2454 27.8789 42.2987 26.9291C44.3659 25.9793 46.6357 25.5044 49.108 25.5044C51.7618 25.5044 54.0386 26.0421 55.9382 27.1177C57.8378 28.1792 59.2975 29.583 60.3171 31.329C61.3368 33.0749 61.8466 34.9606 61.8466 36.9859C61.8466 39.4023 61.2111 41.4626 59.94 43.1667C58.6829 44.8707 56.9718 46.051 54.8068 46.7075V47.0427C57.5166 47.4897 59.6327 48.642 61.1552 50.4998C62.6777 52.3435 63.4389 54.6273 63.4389 57.351C63.4389 59.6836 62.8034 61.7788 61.5323 63.6365C60.2752 65.4802 58.5572 66.9329 56.3782 67.9944C54.1992 69.056 51.7199 69.5868 48.9403 69.5868Z" fill="white"/>
</svg>
