<svg width="99" height="102" viewBox="0 0 99 102" fill="none" xmlns="http://www.w3.org/2000/svg">
<path d="M49.1315 83.4995L22.9969 98.8532L22.7675 68.5432L49.1315 83.4995Z" fill="#D4B137"/>
<path d="M49.2256 83.9498L75.278 68.4572L75.6688 98.7656L49.2256 83.9498Z" fill="#D4B137"/>
<circle cx="49" cy="49" r="35" fill="#E9C340"/>
<circle cx="49.9815" cy="50.0147" r="35" transform="rotate(-35.5346 49.9815 50.0147)" fill="#E2B000"/>
<path d="M14.7177 45.8955L16.5797 37.5418L20.3292 30.3871L29.8561 20.8091L40.4162 15.8606L54.1008 14.751L63.8446 17.7608L68.168 19.7121L74.6214 25.4003L80.2068 32.1142L23.2433 72.7978L18.3015 64.86L15.0875 56.9911L14.7177 45.8955Z" fill="#E9C340"/>
<path d="M52.527 28.0909V71H47.331V33.5384H47.0795L36.6037 40.4943V35.2145L47.331 28.0909H52.527Z" fill="white"/>
</svg>
