<svg width="98" height="101" viewBox="0 0 98 101" fill="none" xmlns="http://www.w3.org/2000/svg">
<path d="M48.2428 82.6853L22.1083 98.039L21.8788 67.729L48.2428 82.6853Z" fill="#ACA99F"/>
<path d="M48.3369 83.1356L74.3893 67.643L74.7801 97.9514L48.3369 83.1356Z" fill="#ACA99F"/>
<circle cx="49.0929" cy="49.2005" r="35" transform="rotate(-35.5346 49.0929 49.2005)" fill="#C1BEAE"/>
<path d="M13.829 45.0813L15.6911 36.7276L19.4405 29.5729L28.9675 19.9949L39.5275 15.0464L53.2121 13.9368L62.9559 16.9466L67.2794 18.8979L73.7327 24.5861L79.3181 31.3L22.3546 71.9836L17.4129 64.0458L14.1989 56.1769L13.829 45.0813Z" fill="#D7D4C7"/>
<path d="M34.4418 69V65.2287L48.6051 49.7244C50.2673 47.9086 51.6361 46.3303 52.7116 44.9893C53.7872 43.6345 54.5833 42.3634 55.1001 41.1761C55.6309 39.9749 55.8963 38.7178 55.8963 37.4048C55.8963 35.8963 55.5331 34.5903 54.8068 33.4869C54.0945 32.3834 53.1167 31.5314 51.8736 30.9308C50.6304 30.3301 49.2337 30.0298 47.6832 30.0298C46.035 30.0298 44.5964 30.372 43.3672 31.0565C42.152 31.7269 41.2092 32.6697 40.5387 33.8849C39.8822 35.1001 39.554 36.5249 39.554 38.1591H34.6094C34.6094 35.6449 35.189 33.438 36.3484 31.5384C37.5077 29.6387 39.0861 28.1581 41.0835 27.0966C43.0948 26.035 45.3506 25.5043 47.8509 25.5043C50.3651 25.5043 52.5929 26.035 54.5344 27.0966C56.476 28.1581 57.9985 29.5898 59.1019 31.3917C60.2054 33.1935 60.7571 35.1979 60.7571 37.4048C60.7571 38.9832 60.4708 40.5266 59.8981 42.0352C59.3394 43.5297 58.3616 45.1989 56.9648 47.0426C55.582 48.8724 53.6615 51.1072 51.2031 53.7472L41.5653 64.0554V64.3906H61.5114V69H34.4418Z" fill="white"/>
</svg>
