<svg width="71" height="88" viewBox="0 0 71 88" fill="none" xmlns="http://www.w3.org/2000/svg">
<path d="M35.1315 69.4995L8.99694 84.8532L8.76752 54.5432L35.1315 69.4995Z" fill="#846769"/>
<path d="M35.2256 69.9498L61.278 54.4572L61.6688 84.7656L35.2256 69.9498Z" fill="#846769"/>
<circle cx="35" cy="35" r="35" fill="#B28C8C"/>
<path d="M33.9403 57.5866C31.1747 57.5866 28.7094 57.1117 26.5444 56.1619C24.3933 55.2121 22.6823 53.8922 21.4112 52.2021C20.1541 50.498 19.4697 48.5215 19.358 46.2727H24.6378C24.7495 47.6555 25.2244 48.8498 26.0625 49.8555C26.9006 50.8472 27.997 51.6154 29.3519 52.1602C30.7068 52.7049 32.2083 52.9773 33.8565 52.9773C35.7003 52.9773 37.3345 52.656 38.7592 52.0135C40.1839 51.371 41.3014 50.477 42.1115 49.3317C42.9216 48.1863 43.3267 46.8594 43.3267 45.3509C43.3267 43.7725 42.9356 42.3827 42.1534 41.1815C41.3712 39.9663 40.2259 39.0165 38.7173 38.332C37.2088 37.6476 35.3651 37.3054 33.1861 37.3054H29.75V32.696H33.1861C34.8902 32.696 36.3847 32.3887 37.6697 31.7741C38.9688 31.1596 39.9814 30.2936 40.7077 29.1761C41.448 28.0587 41.8182 26.7457 41.8182 25.2372C41.8182 23.7846 41.4969 22.5205 40.8544 21.445C40.2119 20.3694 39.304 19.5314 38.1307 18.9308C36.9714 18.3301 35.6025 18.0298 34.0241 18.0298C32.5436 18.0298 31.1468 18.3022 29.8338 18.8469C28.5348 19.3777 27.4732 20.1529 26.6491 21.1726C25.825 22.1783 25.3781 23.3935 25.3082 24.8182H20.2798C20.3636 22.5694 21.0411 20.5999 22.3121 18.9098C23.5832 17.2057 25.2454 15.8788 27.2987 14.929C29.3659 13.9792 31.6357 13.5043 34.108 13.5043C36.7618 13.5043 39.0386 14.042 40.9382 15.1175C42.8378 16.1791 44.2975 17.5829 45.3171 19.3288C46.3368 21.0748 46.8466 22.9605 46.8466 24.9858C46.8466 27.4022 46.2111 29.4625 44.94 31.1665C43.6829 32.8706 41.9718 34.0509 39.8068 34.7074V35.0426C42.5166 35.4896 44.6327 36.6419 46.1552 38.4996C47.6777 40.3434 48.4389 42.6271 48.4389 45.3509C48.4389 47.6835 47.8034 49.7786 46.5323 51.6364C45.2752 53.4801 43.5572 54.9328 41.3782 55.9943C39.1992 57.0559 36.7199 57.5866 33.9403 57.5866Z" fill="white"/>
</svg>
