<?xml version="1.0" encoding="UTF-8" standalone="no"?>
<!DOCTYPE svg PUBLIC "-//W3C//DTD SVG 1.1//EN" "http://www.w3.org/Graphics/SVG/1.1/DTD/svg11.dtd">
<svg width="100%" height="100%" viewBox="0 0 512 512" version="1.1" xmlns="http://www.w3.org/2000/svg" xmlns:xlink="http://www.w3.org/1999/xlink" xml:space="preserve" xmlns:serif="http://www.serif.com/" style="fill-rule:evenodd;clip-rule:evenodd;stroke-linejoin:round;stroke-miterlimit:2;">
    <g>
        <path d="M141.698,141.549L79.077,141.549C70.589,141.549 63.707,148.431 63.707,156.911L63.707,355.09C63.707,363.569 70.589,370.452 79.077,370.452L141.699,370.452C150.188,370.452 157.07,363.569 157.07,355.09L157.07,156.911C157.07,148.431 150.187,141.549 141.698,141.549Z" style="fill:white;fill-rule:nonzero;"/>
        <path d="M32.374,189.734L12.803,189.734C5.736,189.734 0,195.47 0,202.537L0,309.462C0,316.53 5.736,322.265 12.803,322.265L32.374,322.265C39.441,322.265 45.177,316.529 45.177,309.462L45.177,202.537C45.177,195.47 39.441,189.734 32.374,189.734Z" style="fill:white;fill-rule:nonzero;"/>
        <rect x="177.69" y="228.894" width="156.62" height="54.212" style="fill:white;"/>
        <path d="M432.922,141.549L370.301,141.549C361.813,141.549 354.93,148.431 354.93,156.911L354.93,355.09C354.93,363.569 361.812,370.452 370.301,370.452L432.922,370.452C441.41,370.452 448.293,363.569 448.293,355.09L448.293,156.911C448.293,148.431 441.411,141.549 432.922,141.549Z" style="fill:white;fill-rule:nonzero;"/>
        <path d="M499.197,189.734L479.627,189.734C472.559,189.734 466.824,195.47 466.824,202.537L466.824,309.462C466.824,316.53 472.56,322.265 479.627,322.265L499.197,322.265C506.265,322.265 512,316.529 512,309.462L512,202.537C512,195.47 506.264,189.734 499.197,189.734Z" style="fill:white;fill-rule:nonzero;"/>
    </g>
</svg>
